<svg xmlns="http://www.w3.org/2000/svg" height="48" viewBox="0 96 960 960" width="48"><path d="M480 1017 52 368q92-77 200.263-125t228.122-48Q599 195 708 243q109 48 200 125l-428 649ZM358.824 499q26.676 0 42.926-16.574Q418 465.853 418 439.177q0-26.677-15.971-43.427-15.97-16.75-42.5-16.75Q333 379 316.5 395.574 300 412.147 300 438.823q0 26.677 16.282 43.427T358.824 499Zm120.647 201Q506 700 523 683.926q17-16.073 17-42.75 0-26.676-16.676-43.426-16.677-16.75-43.5-16.75Q453 581 436.5 597.574q-16.5 16.573-16.5 43.25 0 26.676 16.471 42.926 16.47 16.25 43 16.25Z"/></svg>